<svg width="51" height="24" viewBox="0 0 51 24" fill="none" xmlns="http://www.w3.org/2000/svg">
<g clip-path="url(#clip0)">
<path d="M15.2461 6.18665C15.0514 6.36584 14.8566 6.54129 14.6619 6.72048C13.984 7.36257 13.4709 8.10546 13.2912 9.03499C13.0403 10.3229 13.3062 11.5026 14.0889 12.559C14.4821 13.0891 14.9465 13.5259 15.5682 13.7797C15.6393 13.8096 15.7142 13.8357 15.8041 13.8693C15.7217 14.0896 15.6506 14.3061 15.5644 14.5152C15.0588 15.7396 14.3997 16.8707 13.5009 17.8525C13.3324 18.0355 13.1451 18.1997 12.9504 18.3565C12.295 18.8866 11.5572 19.0882 10.7296 18.8493C10.3176 18.7298 9.90567 18.5954 9.49371 18.4685C9.07052 18.3378 8.63984 18.2333 8.19418 18.2221C7.63991 18.2072 7.12684 18.3752 6.61752 18.5618C6.22803 18.7037 5.83855 18.853 5.43783 18.9463C4.80492 19.0957 4.23567 18.9015 3.71136 18.5469C3.18331 18.1885 2.76387 17.7219 2.4006 17.2067C1.4943 15.9151 0.801464 14.5152 0.378274 12.9921C2.41919e-05 11.637 -0.104837 10.2632 0.10863 8.87074C0.295883 7.64255 0.756523 6.53383 1.62163 5.61922C2.52044 4.67102 3.62523 4.27904 4.92476 4.4097C5.5689 4.47316 6.18684 4.65982 6.80851 4.83901C7.06692 4.91367 7.32907 4.96966 7.59123 5.03686C7.96573 5.13019 8.33275 5.08912 8.69227 4.9846C9.2016 4.83527 9.70343 4.66728 10.209 4.51796C10.9655 4.29398 11.7295 4.23051 12.5085 4.37984C13.5159 4.57396 14.3136 5.11525 14.9802 5.86934C15.0626 5.96267 15.145 6.05973 15.2274 6.15679C15.2349 6.16052 15.2386 6.17172 15.2461 6.18665Z" fill="#962689"/>
<path d="M11.4565 0C11.4677 0.220252 11.4977 0.429305 11.4827 0.634624C11.404 1.75082 10.9659 2.71395 10.1907 3.52403C9.84236 3.88987 9.45662 4.21092 8.97726 4.39757C8.57279 4.5581 8.13837 4.59169 7.70769 4.62156C7.7002 4.62156 7.69271 4.61409 7.68896 4.61036C7.75263 2.11666 9.01471 0.500233 11.4565 0Z" fill="#962689"/>
<path d="M20.6611 2.96805C21.6611 2.80379 22.9681 2.6582 24.6346 2.6582C26.6794 2.6582 28.1774 3.13231 29.1287 3.98718C30.0088 4.745 30.5331 5.90972 30.5331 7.33203C30.5331 8.77673 30.1061 9.91532 29.2972 10.7478C28.2037 11.9088 26.4173 12.5023 24.3987 12.5023C23.7808 12.5023 23.2078 12.48 22.7321 12.3605V18.7627H20.6611V2.96805ZM22.7321 10.6731C23.1853 10.7926 23.7545 10.8374 24.4436 10.8374C26.9416 10.8374 28.4621 9.62787 28.4621 7.42162C28.4621 5.31243 26.964 4.29329 24.6796 4.29329C23.777 4.29329 23.0842 4.36422 22.7284 4.45755V10.6731H22.7321Z" fill="#103742"/>
<path d="M38.0007 18.7585L37.836 17.3138H37.7648C37.1244 18.2134 35.8848 19.0198 34.2445 19.0198C31.915 19.0198 30.7241 17.3847 30.7241 15.7235C30.7241 12.9498 33.1996 11.4304 37.645 11.4566V11.2176C37.645 10.2694 37.3828 8.56342 35.0272 8.56342C33.9561 8.56342 32.8401 8.89567 32.0311 9.4183L31.5555 8.04452C32.5068 7.42856 33.8849 7.02539 35.338 7.02539C38.8584 7.02539 39.716 9.42203 39.716 11.7216V16.0147C39.716 17.0114 39.7647 17.982 39.907 18.7659H38.0007V18.7585ZM37.6936 12.9013C35.4092 12.8527 32.8176 13.2559 32.8176 15.4846C32.8176 16.8359 33.7202 17.478 34.7912 17.478C36.2893 17.478 37.2405 16.5298 37.5738 15.5555C37.645 15.3427 37.6936 15.1038 37.6936 14.891V12.9013Z" fill="#103742"/>
<path d="M42.4946 7.2832L45.015 14.0662C45.2772 14.824 45.5618 15.7274 45.7528 16.4143H45.8015C46.0149 15.7274 46.2546 14.8502 46.5392 14.0177L48.8237 7.2832H51.037L47.8987 15.4624C46.4007 19.3971 45.3783 21.4129 43.9514 22.6486C42.929 23.5483 41.9066 23.9066 41.3823 24L40.858 22.2454C41.3823 22.0812 42.0714 21.7489 42.6893 21.2263C43.2586 20.7746 43.9739 19.9682 44.4495 18.9043C44.5431 18.6915 44.6143 18.5235 44.6143 18.4078C44.6143 18.2883 44.5656 18.1241 44.472 17.8628L40.2139 7.28694H42.4946V7.2832Z" fill="#103742"/>
</g>
<defs>
<clipPath id="clip0">
<rect width="51" height="24" fill="white"/>
</clipPath>
</defs>
</svg>
