<svg width="31" height="31" viewBox="0 0 31 31" fill="none" xmlns="http://www.w3.org/2000/svg">
<g clip-path="url(#clip0)">
<path d="M10.4474 23.7273C10.4395 23.6886 10.428 23.6504 10.4129 23.6135C10.3977 23.5772 10.3789 23.5421 10.3571 23.5094C10.3354 23.4761 10.3099 23.4452 10.2821 23.4173C10.2542 23.3895 10.2233 23.3641 10.19 23.3423C10.1573 23.3205 10.1222 23.3017 10.0853 23.2866C10.049 23.2714 10.0108 23.2593 9.97207 23.252C9.89396 23.2363 9.81344 23.2363 9.73594 23.252C9.69719 23.2593 9.65904 23.2714 9.62211 23.2866C9.58578 23.3017 9.55066 23.3205 9.51797 23.3423C9.48467 23.3641 9.45379 23.3895 9.42594 23.4173C9.39809 23.4452 9.37266 23.4761 9.35086 23.5094C9.32846 23.5421 9.31029 23.5772 9.29516 23.6135C9.28002 23.6504 9.26791 23.6886 9.26064 23.7273C9.25277 23.7661 9.24854 23.806 9.24854 23.8454C9.24854 23.8848 9.25277 23.9247 9.26064 23.9635C9.26791 24.0022 9.28002 24.0404 9.29516 24.0767C9.31029 24.1136 9.32846 24.1487 9.35086 24.1814C9.37266 24.2147 9.39809 24.2456 9.42594 24.2735C9.45379 24.3013 9.48467 24.3267 9.51797 24.3485C9.55066 24.3704 9.58578 24.3892 9.62211 24.4043C9.65904 24.4194 9.69719 24.4316 9.73594 24.4388C9.77469 24.4467 9.81465 24.4509 9.854 24.4509C9.89336 24.4509 9.93332 24.4467 9.97207 24.4388C10.0108 24.4316 10.049 24.4194 10.0853 24.4043C10.1222 24.3892 10.1573 24.3703 10.19 24.3485C10.2233 24.3267 10.2542 24.3013 10.2821 24.2735C10.3099 24.2456 10.3354 24.2147 10.3571 24.1814C10.3789 24.1487 10.3977 24.1136 10.4129 24.0767C10.428 24.0404 10.4395 24.0022 10.4474 23.9635C10.4552 23.9247 10.4595 23.8848 10.4595 23.8454C10.4595 23.806 10.4552 23.7661 10.4474 23.7273Z" fill="#962689"/>
<path d="M27.8511 23.9157C27.8488 23.9097 27.8464 23.9037 27.8438 23.8978C27.2865 22.5938 25.9796 22.1118 24.4328 22.6401L20.2147 23.8066C19.9708 23.068 19.3625 22.4395 18.5023 22.1203C18.497 22.1184 18.4917 22.1165 18.4863 22.1147L13.8496 20.5409C13.4636 20.0421 12.2547 18.7656 9.99132 18.7656C8.40954 18.7656 7.01024 19.8507 6.20969 21.0335H0.605469C0.271068 21.0335 0 21.3046 0 21.639V29.2726C0 29.607 0.271068 29.878 0.605469 29.878H4.2054C4.5398 29.878 4.81087 29.607 4.81087 29.2726V28.7498H6.4991C6.8335 28.7498 7.10457 28.4787 7.10457 28.1443V27.9701C8.0887 28.0559 8.41238 28.2426 9.31623 28.7638C10.0113 29.1646 11.0619 29.7704 12.9537 30.621C12.9625 30.6249 12.9714 30.6287 12.9803 30.6322C13.3434 30.775 14.0532 30.9994 14.9283 30.9994C15.5374 30.9994 16.2267 30.8906 16.9342 30.5699L26.2579 27.2316C26.2745 27.2257 26.2908 27.219 26.3068 27.2116C27.1979 26.8016 28.5258 25.6462 27.8511 23.9157ZM3.59994 28.667H1.21094V22.2444H3.59994V28.667ZM5.89363 27.5388H4.81087V22.2444H5.89363V27.5388ZM25.823 26.101L16.5035 29.4378C16.4953 29.4407 16.4842 29.4451 16.4762 29.4483C16.468 29.4517 16.4599 29.4552 16.4518 29.4589C15.1539 30.0554 13.9201 29.6983 13.4366 29.5103C11.6091 28.688 10.6338 28.1256 9.92115 27.7146C8.93036 27.1433 8.45295 26.8679 7.10457 26.7566V21.88C7.67849 20.9394 8.79147 19.9765 9.99138 19.9765C12.0491 19.9765 12.9211 21.3149 12.9553 21.3689C13.0293 21.4891 13.1429 21.5798 13.2765 21.6251L18.0885 23.2583C18.857 23.5468 19.2632 24.2049 19.0765 24.8612C18.9903 25.1643 18.7913 25.4157 18.516 25.5691C18.2431 25.7211 17.9277 25.7587 17.627 25.6755L12.2024 23.9565C11.8835 23.8554 11.5433 24.032 11.4423 24.3508C11.3413 24.6695 11.5178 25.0098 11.8366 25.1109L17.2706 26.8329C17.2764 26.8347 17.2821 26.8365 17.2879 26.8381C17.5049 26.8998 17.7258 26.9303 17.9453 26.9303C18.3472 26.9303 18.7447 26.8279 19.1054 26.6269C19.6633 26.3161 20.0666 25.8067 20.2412 25.1924C20.2552 25.1434 20.2675 25.0943 20.2782 25.0453L24.8243 23.7859C25.4809 23.5617 26.3427 23.4808 26.7265 24.3646C27.1237 25.4022 26.0913 25.973 25.823 26.101Z" fill="#103742"/>
<path d="M21.74 7.96366C21.7321 7.92491 21.7206 7.88677 21.7048 7.84983C21.6897 7.81351 21.6715 7.77839 21.6491 7.74569C21.6273 7.71239 21.6019 7.68151 21.5741 7.65366C21.5462 7.62581 21.5153 7.60038 21.482 7.57858C21.4493 7.55679 21.4142 7.53802 21.3779 7.52288C21.341 7.50774 21.3028 7.49563 21.2647 7.48837C21.1866 7.47263 21.106 7.47263 21.0279 7.48837C20.9892 7.49563 20.951 7.50774 20.9147 7.52288C20.8778 7.53802 20.8427 7.55679 20.81 7.57858C20.7767 7.60038 20.7458 7.62581 20.7179 7.65366C20.6901 7.68151 20.6646 7.71239 20.6429 7.74569C20.6211 7.77839 20.6023 7.81351 20.5871 7.84983C20.572 7.88677 20.5599 7.92491 20.5526 7.96366C20.5448 8.00241 20.5405 8.04237 20.5405 8.08173C20.5405 8.12108 20.5448 8.16104 20.5526 8.19979C20.5599 8.23854 20.572 8.27669 20.5871 8.31302C20.6023 8.34995 20.6211 8.38507 20.6429 8.41776C20.6646 8.45106 20.6901 8.48194 20.7179 8.50979C20.7458 8.53765 20.7767 8.56308 20.81 8.58487C20.8427 8.60667 20.8778 8.62544 20.9147 8.64058C20.951 8.65571 20.9892 8.66722 21.0279 8.67509C21.0667 8.68296 21.1066 8.6872 21.146 8.6872C21.1854 8.6872 21.2253 8.68296 21.2647 8.67509C21.3028 8.66722 21.341 8.65571 21.3779 8.64058C21.4142 8.62544 21.4493 8.60667 21.482 8.58487C21.5153 8.56308 21.5462 8.53765 21.5741 8.50979C21.6019 8.48194 21.6273 8.45106 21.6491 8.41776C21.6715 8.38507 21.6897 8.34995 21.7048 8.31302C21.7206 8.27669 21.7321 8.23854 21.74 8.19979C21.7478 8.16104 21.7515 8.12108 21.7515 8.08173C21.7515 8.04237 21.7478 8.00241 21.74 7.96366Z" fill="#962689"/>
<path d="M30.3947 2.05254H26.7948C26.4604 2.05254 26.1893 2.32361 26.1893 2.65801V3.18077H24.5011C24.1667 3.18077 23.8956 3.45184 23.8956 3.78624V3.96049C22.9115 3.87458 22.5878 3.68797 21.684 3.16678C20.9889 2.76596 19.9384 2.16019 18.0465 1.30957C18.0377 1.30557 18.0289 1.30188 18.0198 1.29837C17.404 1.05606 15.79 0.579313 14.0662 1.36055L11.6298 2.23291L9.57608 0.17928C9.33965 -0.0571558 8.95627 -0.0571558 8.71983 0.17928L1.97745 6.9216C1.75936 7.13975 1.71752 7.51799 1.97745 7.77791L13.4987 19.2992C13.6831 19.4836 14.1148 19.5394 14.355 19.2992L20.5105 13.1438C20.6706 13.1576 20.8367 13.165 21.0088 13.165C22.5906 13.165 23.9899 12.0799 24.7904 10.8972H30.3947C30.7291 10.8972 31.0002 10.6261 31.0002 10.2917V2.65801C31.0002 2.32361 30.7291 2.05254 30.3947 2.05254ZM9.1479 1.46366L10.5279 2.84365C10.1177 3.09734 9.64341 3.23308 9.1479 3.23308C8.65232 3.23308 8.17812 3.0974 7.76791 2.84365L9.1479 1.46366ZM4.64188 8.72977L3.26189 7.34973L4.64188 5.96974C4.89557 6.37995 5.03131 6.85421 5.03131 7.34973C5.03131 7.84524 4.89563 8.31951 4.64188 8.72977ZM13.9269 18.0148L12.5472 16.635C13.3896 16.1152 14.4642 16.1152 15.3066 16.635L13.9269 18.0148ZM16.179 15.7628C14.841 14.7922 13.0128 14.7922 11.6749 15.7628L5.51418 9.60201C5.98699 8.95174 6.24225 8.17062 6.24225 7.34973C6.24225 6.52877 5.98705 5.74772 5.51418 5.09744L6.89567 3.716C7.54595 4.18882 8.327 4.44408 9.14796 4.44408C9.96891 4.44408 10.75 4.18882 11.4002 3.716L12.7098 5.02557C12.4272 5.06729 12.1517 5.16041 11.8947 5.3036C11.4607 5.54543 11.1202 5.90756 10.9082 6.34568C10.2252 6.47216 9.59292 6.80281 9.09692 7.29875C7.75126 8.64446 7.75126 10.834 9.09698 12.1797C9.76977 12.8525 10.6536 13.189 11.5374 13.189C12.4212 13.189 13.3051 12.8526 13.978 12.1797C14.4157 11.742 14.7224 11.204 14.876 10.6176L16.9203 11.3114C16.6902 12.3775 16.9259 13.4991 17.5617 14.3801L16.179 15.7628ZM12.4978 9.81023C12.5032 9.81217 12.5085 9.81411 12.5139 9.81592L13.7246 10.2269C13.6331 10.6395 13.4263 11.0189 13.1217 11.3235C12.2481 12.1969 10.8267 12.197 9.95329 11.3235C9.07972 10.45 9.07972 9.02863 9.95329 8.15506C10.164 7.94424 10.4127 7.77949 10.6836 7.66778C10.7954 8.5979 11.4651 9.42697 12.4978 9.81023ZM18.4341 13.5076C18.2004 13.1267 18.0681 12.6921 18.0473 12.2485C18.3373 12.4581 18.6917 12.6636 19.1151 12.8266L18.4341 13.5076ZM23.8955 10.0503C23.3217 10.9911 22.2087 11.954 21.0088 11.954C20.7843 11.954 20.5739 11.938 20.3772 11.9095C20.3764 11.9094 20.3756 11.9093 20.3748 11.9091C19.0672 11.7192 18.3639 10.9761 18.132 10.6818C18.1197 10.6636 18.0671 10.5948 18.0592 10.5834C17.9887 10.4573 17.8731 10.3559 17.7256 10.3059L12.9116 8.67201C12.1434 8.38368 11.7373 7.72584 11.9234 7.06976C11.9235 7.06933 11.9237 7.06891 11.9238 7.06849C11.924 7.068 11.9241 7.06746 11.9242 7.06697C12.0107 6.76484 12.2094 6.51424 12.4841 6.36124C12.7569 6.2092 13.0723 6.17148 13.3731 6.25486L18.7977 7.97384C19.1165 8.07502 19.4568 7.89834 19.5578 7.57956C19.6588 7.26078 19.4823 6.92051 19.1635 6.81946L14.8492 5.45231L14.8116 5.41465C14.8112 5.41428 14.8108 5.41386 14.8104 5.4135L12.5768 3.17992L14.4967 2.49247C14.5031 2.49011 14.5111 2.48715 14.5176 2.48454C14.5192 2.48388 14.5223 2.48266 14.5239 2.482C14.5321 2.47867 14.5403 2.47516 14.5483 2.47146C15.8462 1.87496 17.0799 2.232 17.5635 2.42006C19.391 3.24235 20.3664 3.80477 21.079 4.2157C22.0698 4.78708 22.5472 5.06239 23.8955 5.17373V10.0503ZM26.1893 9.68611H25.1065V4.39171H26.1893V9.68611ZM29.7892 9.68611H27.4002V3.26348H29.7892V9.68611Z" fill="#103742"/>
</g>
<defs>
<clipPath id="clip0">
<rect width="31" height="31" fill="white"/>
</clipPath>
</defs>
</svg>
