<svg width="18" height="18" viewBox="0 0 18 18" fill="none" xmlns="http://www.w3.org/2000/svg">
<g clip-path="url(#clip0)">
<path d="M17.4736 8.47264C17.1823 8.47264 16.9462 8.70875 16.9462 8.99998C16.9462 13.381 13.382 16.9452 9.00096 16.9452C4.61992 16.9452 1.05569 13.381 1.05569 8.99998C1.05569 4.61894 4.61992 1.05471 9.00096 1.05471C10.3369 1.05471 11.6363 1.38641 12.7964 2.01845L12.1371 2.67773C11.9863 2.82855 11.9412 3.05534 12.0228 3.25242C12.1044 3.44947 12.2967 3.57797 12.51 3.57797H15.0332C15.3244 3.57797 15.5606 3.34186 15.5606 3.05063V0.527374C15.5606 0.314082 15.4321 0.121814 15.235 0.0401812C15.0379 -0.0414863 14.8111 0.00365407 14.6603 0.154509L13.5699 1.24494C12.1886 0.429429 10.6182 6.81453e-05 9.00093 6.81453e-05C6.59695 6.81453e-05 4.33684 0.936238 2.63698 2.63607C0.937112 4.33597 0.000976562 6.59604 0.000976562 9.00001C0.000976562 11.404 0.937112 13.6641 2.63698 15.3639C4.33688 17.0638 6.59695 18 9.00093 18C11.4049 18 13.665 17.0638 15.3648 15.3639C17.0647 13.6641 18.0008 11.404 18.0008 9.00001C18.0009 8.70875 17.7648 8.47264 17.4736 8.47264Z" fill="#103742"/>
<path d="M12.3891 8.47303H9.52746V5.61132C9.52746 5.32009 9.29135 5.08398 9.00012 5.08398C8.70889 5.08398 8.47278 5.32009 8.47278 5.61132V9.00037C8.47278 9.2916 8.70889 9.52771 9.00012 9.52771H12.3891C12.6804 9.52771 12.9165 9.2916 12.9165 9.00037C12.9165 8.70913 12.6804 8.47303 12.3891 8.47303Z" fill="#103742"/>
</g>
<defs>
<clipPath id="clip0">
<rect width="18" height="18" fill="white"/>
</clipPath>
</defs>
</svg>
