<svg width="18" height="14" viewBox="0 0 18 14" fill="none" xmlns="http://www.w3.org/2000/svg">
<path d="M16.5 0.25H1.50001C0.672715 0.25 0 0.922715 0 1.75001V12.25C0 13.0773 0.672715 13.75 1.50001 13.75H16.5C17.3273 13.75 18 13.0773 18 12.25V1.75001C18 0.922715 17.3273 0.25 16.5 0.25ZM1.50001 0.999988H16.5C16.5553 0.999988 16.604 1.02013 16.6558 1.03152C15.3572 2.22005 11.0511 6.15938 9.54422 7.51708C9.4263 7.62329 9.23625 7.74999 9.00004 7.74999C8.76382 7.74999 8.57377 7.62329 8.45547 7.51673C6.9487 6.15924 2.64238 2.2197 1.34395 1.03159C1.39591 1.0202 1.44471 0.999988 1.50001 0.999988ZM0.749988 12.25V1.75001C0.749988 1.67654 0.772137 1.60988 0.791965 1.54273C1.7859 2.45243 4.7905 5.20109 6.73871 6.97272C4.79682 8.64078 1.79146 11.4901 0.789609 12.4455C0.771926 12.3817 0.749988 12.3193 0.749988 12.25ZM16.5 13H1.50001C1.44011 13 1.38684 12.9791 1.33091 12.9658C2.36616 11.9789 5.39065 9.11314 7.2984 7.48108C7.5471 7.70668 7.77428 7.91237 7.95336 8.07374C8.26246 8.35281 8.62425 8.50001 9 8.50001C9.37575 8.50001 9.73754 8.35278 10.0463 8.07409C10.2254 7.91266 10.4528 7.70678 10.7016 7.48108C12.6095 9.11296 15.6335 11.9785 16.6691 12.9658C16.6132 12.9791 16.56 13 16.5 13ZM17.25 12.25C17.25 12.3193 17.2281 12.3817 17.2104 12.4455C16.2082 11.4896 13.2032 8.6406 11.2613 6.97275C13.2096 5.20113 16.2137 2.45271 17.208 1.54266C17.2279 1.60981 17.25 1.6765 17.25 1.74998V12.25Z" fill="#103742"/>
</svg>
