<svg width="32" height="32" viewBox="0 0 32 32" fill="none" xmlns="http://www.w3.org/2000/svg">
<path d="M31.0847 4.37376C30.6139 3.9022 29.8501 3.90138 29.3794 4.37176L14.911 18.8019L9.69092 13.1323C9.23986 12.6427 8.47723 12.6109 7.9868 13.0619C7.49673 13.513 7.46536 14.276 7.91642 14.7661L13.9868 21.3586C14.2091 21.6003 14.5202 21.7406 14.8483 21.7474C14.8571 21.7478 14.8656 21.7478 14.874 21.7478C15.1929 21.7478 15.4995 21.6211 15.7255 21.396L31.0823 6.07945C31.5542 5.60913 31.555 4.84532 31.0847 4.37376Z" fill="#962689"/>
<path d="M30.7939 14.7939C30.1278 14.7939 29.5879 15.3338 29.5879 16C29.5879 23.4927 23.4927 29.5879 16 29.5879C8.50775 29.5879 2.41206 23.4927 2.41206 16C2.41206 8.50775 8.50775 2.41206 16 2.41206C16.6661 2.41206 17.2061 1.87219 17.2061 1.20606C17.2061 0.539875 16.6661 0 16 0C7.1775 0 0 7.1775 0 16C0 24.8221 7.1775 32 16 32C24.8221 32 32 24.8221 32 16C32 15.3339 31.4601 14.7939 30.7939 14.7939Z" fill="#962689"/>
</svg>
