<svg width="50" height="20" viewBox="0 0 50 20" fill="none" xmlns="http://www.w3.org/2000/svg">
<g clip-path="url(#clip0)">
<path d="M23.6491 2.93869V7.99357H26.7392C27.4739 7.99357 28.0846 7.74357 28.5654 7.24662C29.0612 6.74967 29.3061 6.15515 29.3061 5.46613C29.3061 4.79235 29.0582 4.20698 28.5654 3.70698C28.0846 3.19479 27.4739 2.93869 26.7392 2.93869H23.6491ZM23.6491 9.77101V15.6338H21.8018V1.1582H26.6999C27.9456 1.1582 28.9977 1.57589 29.8685 2.41125C30.7544 3.24662 31.1958 4.26491 31.1958 5.46308C31.1958 6.68869 30.7544 7.71308 29.8685 8.53625C29.0129 9.35942 27.9546 9.76796 26.6999 9.76796L23.6491 9.77101Z" fill="#5F6368"/>
<path d="M33.0613 12.5994C33.0613 13.0842 33.2638 13.4897 33.675 13.8128C34.0832 14.136 34.5609 14.2976 35.1112 14.2976C35.8882 14.2976 36.5776 14.008 37.1884 13.4287C37.7961 12.8494 38.1015 12.1695 38.1015 11.3891C37.527 10.9287 36.7227 10.7 35.6917 10.7C34.9419 10.7 34.316 10.883 33.8141 11.2458C33.3122 11.6116 33.0613 12.0598 33.0613 12.5994ZM35.4498 5.4043C36.8165 5.4043 37.8928 5.77015 38.682 6.50491C39.4711 7.23966 39.8642 8.24576 39.8642 9.52625V15.633H38.0984V14.258H38.0168C37.2549 15.3891 36.239 15.9561 34.9661 15.9561C33.8837 15.9561 32.9736 15.633 32.2449 14.9866C31.5162 14.3372 31.1504 13.5323 31.1504 12.5598C31.1504 11.5354 31.5344 10.7214 32.3024 10.1147C33.0733 9.50796 34.0983 9.20308 35.3833 9.20308C36.4809 9.20308 37.3849 9.4043 38.0924 9.80978V9.386C38.0924 8.73966 37.8384 8.19088 37.3305 7.73966C36.8195 7.28844 36.2269 7.06283 35.5436 7.06283C34.5125 7.06283 33.6962 7.50186 33.0945 8.37686L31.4739 7.34332C32.3719 6.05064 33.6962 5.4043 35.4498 5.4043Z" fill="#5F6368"/>
<path d="M50.0006 5.72852L43.8356 19.9999H41.9308L44.2196 15.006L40.165 5.72852H42.1727L45.1024 12.8444H45.1418L47.9929 5.72852H50.0006Z" fill="#5F6368"/>
<path d="M16.1855 8.50653C16.1855 7.92116 16.1371 7.35714 16.0434 6.81445H8.25781V10.0187H12.7175C12.527 11.0645 11.9465 11.9516 11.0697 12.5462V14.6254H13.7304C15.2875 13.1773 16.1855 11.037 16.1855 8.50653Z" fill="#962689"/>
<path d="M8.25777 16.6358C10.4861 16.6358 12.3637 15.898 13.7303 14.6266L11.0696 12.5473C10.3289 13.0504 9.37344 13.3431 8.25777 13.3431C6.10502 13.3431 4.27579 11.8797 3.62271 9.91016H0.880371V12.0534C2.23793 14.7699 5.03167 16.6358 8.25777 16.6358Z" fill="#962689"/>
<path d="M3.62267 9.9102C3.45637 9.40716 3.36265 8.87057 3.36265 8.31874C3.36265 7.76691 3.45335 7.23033 3.62267 6.72728V4.58398H0.880333C0.317958 5.70594 0.000488281 6.97423 0.000488281 8.31874C0.000488281 9.66325 0.317958 10.9315 0.880333 12.0535L3.62267 9.9102Z" fill="#962689"/>
<path d="M8.25777 3.29378C9.47322 3.29378 10.5647 3.71451 11.4264 4.54073L13.7817 2.16573C12.3516 0.824266 10.4831 -0.00195312 8.25777 -0.00195312C5.03167 -0.00195312 2.23793 1.8639 0.880371 4.58036L3.62271 6.72366C4.27579 4.75414 6.10502 3.29378 8.25777 3.29378Z" fill="#962689"/>
</g>
<defs>
<clipPath id="clip0">
<rect width="50" height="20" fill="white"/>
</clipPath>
</defs>
</svg>
