<svg width="22" height="22" viewBox="0 0 22 22" fill="none" xmlns="http://www.w3.org/2000/svg">
<path d="M15.95 0.916016C13.9792 0.919059 12.1329 1.88031 11 3.49289C9.86706 1.88031 8.02083 0.919059 6.05 0.916016C2.82699 0.916016 0 3.9147 0 7.33268C0 10.6638 1.88096 14.0947 5.43984 17.2547C7.08877 18.716 8.89758 19.9863 10.8317 21.0417C10.9373 21.0961 11.0627 21.0961 11.1683 21.0417C13.1017 19.9863 14.91 18.7158 16.5584 17.2547C20.119 14.0947 22 10.6638 22 7.33268C22 3.9147 19.173 0.916016 15.95 0.916016V0.916016ZM11 20.299C9.65329 19.5559 0.733333 14.3638 0.733333 7.33268C0.733333 4.30518 3.21746 1.64935 6.05 1.64935C7.96891 1.65275 9.73779 2.68794 10.6806 4.35942C10.7511 4.4672 10.8713 4.53201 11 4.53201C11.1287 4.53201 11.2489 4.4672 11.3194 4.35942C12.2622 2.68794 14.0311 1.65275 15.95 1.64935C18.7825 1.64935 21.2667 4.30518 21.2667 7.33268C21.2667 14.3638 12.3467 19.5559 11 20.299Z" fill="#103742"/>
</svg>
