<svg width="28" height="28" viewBox="0 0 28 28" fill="none" xmlns="http://www.w3.org/2000/svg">
<g clip-path="url(#clip0)">
<path d="M1.7504 1.90502C-0.449938 4.19052 0.000395231 6.61835 0.000395231 13.994C0.000395231 20.119 -1.06827 26.2592 4.52473 27.7047C6.27123 28.1538 21.7459 28.1538 23.4901 27.7023C25.8187 27.1015 27.7134 25.2127 27.9724 21.9192C28.0086 21.4595 28.0086 6.53668 27.9712 6.06768C27.6959 2.55952 25.5364 0.537684 22.6909 0.128184C22.0387 0.033684 21.9081 0.00568399 18.5621 -0.000149339C6.69356 0.00568399 4.0919 -0.522816 1.7504 1.90502Z" fill="url(#paint0_linear)"/>
<path d="M13.9978 3.66232C9.76161 3.66232 5.73894 3.28549 4.20244 7.22882C3.56778 8.85749 3.65994 10.9727 3.65994 14.0013C3.65994 16.659 3.57478 19.1568 4.20244 20.7727C5.73544 24.7183 9.79077 24.3403 13.9954 24.3403C18.0519 24.3403 22.2344 24.7627 23.7896 20.7727C24.4254 19.1277 24.3321 17.044 24.3321 14.0013C24.3321 9.96232 24.5549 7.35482 22.5961 5.39715C20.6128 3.41382 17.9306 3.66232 13.9931 3.66232H13.9978ZM13.0714 5.52549C21.9078 5.51149 23.0324 4.52916 22.4118 18.1757C22.1913 23.0022 18.5163 22.4725 13.9989 22.4725C5.76227 22.4725 5.52544 22.2368 5.52544 13.9967C5.52544 5.66082 6.17878 5.53015 13.0714 5.52315V5.52549ZM19.5161 7.24165C18.8313 7.24165 18.2759 7.79699 18.2759 8.48182C18.2759 9.16665 18.8313 9.72199 19.5161 9.72199C20.2009 9.72199 20.7563 9.16665 20.7563 8.48182C20.7563 7.79699 20.2009 7.24165 19.5161 7.24165ZM13.9978 8.69182C11.0659 8.69182 8.68944 11.0695 8.68944 14.0013C8.68944 16.9332 11.0659 19.3097 13.9978 19.3097C16.9296 19.3097 19.3049 16.9332 19.3049 14.0013C19.3049 11.0695 16.9296 8.69182 13.9978 8.69182ZM13.9978 10.555C18.5536 10.555 18.5594 17.4477 13.9978 17.4477C9.44311 17.4477 9.43611 10.555 13.9978 10.555Z" fill="white"/>
</g>
<defs>
<linearGradient id="paint0_linear" x1="1.80409" y1="26.2115" x2="27.8271" y2="3.68881" gradientUnits="userSpaceOnUse">
<stop stop-color="#FFDD55"/>
<stop offset="0.5" stop-color="#FF543E"/>
<stop offset="1" stop-color="#C837AB"/>
</linearGradient>
<clipPath id="clip0">
<rect width="28" height="28" fill="white"/>
</clipPath>
</defs>
</svg>
