<svg width="14" height="20" viewBox="0 0 14 20" fill="none" xmlns="http://www.w3.org/2000/svg">
<path d="M6.83028 0.615234C3.2366 0.615234 0.312866 3.53897 0.312866 7.13264C0.312866 11.6495 6.83669 19.3652 6.83669 19.3652C6.83669 19.3652 13.3477 11.4274 13.3477 7.13264C13.3477 3.53897 10.4241 0.615234 6.83028 0.615234ZM8.79672 9.04095C8.25449 9.58305 7.54244 9.85416 6.83028 9.85416C6.11823 9.85416 5.40595 9.58305 4.86395 9.04095C3.77963 7.95673 3.77963 6.19251 4.86395 5.10818C5.38901 4.5829 6.08744 4.29359 6.83028 4.29359C7.57311 4.29359 8.27143 4.58301 8.79672 5.10818C9.88104 6.19251 9.88104 7.95673 8.79672 9.04095Z" fill="#103742"/>
</svg>
