<svg width="28" height="28" viewBox="0 0 28 28" fill="none" xmlns="http://www.w3.org/2000/svg">
<path d="M15.5469 14.0008L27.6797 1.86794C28.1068 1.44077 28.1068 0.748213 27.6797 0.321105C27.2525 -0.106004 26.5599 -0.106058 26.1328 0.321105L14 12.4539L1.86721 0.321105C1.44004 -0.106058 0.747481 -0.106058 0.320372 0.321105C-0.106736 0.748268 -0.106791 1.44083 0.320372 1.86794L12.4532 14.0007L0.320372 26.1336C-0.106791 26.5607 -0.106791 27.2533 0.320372 27.6804C0.533927 27.8939 0.813872 28.0007 1.09382 28.0007C1.37376 28.0007 1.65365 27.8939 1.86726 27.6804L14 15.5476L26.1328 27.6804C26.3463 27.8939 26.6263 28.0007 26.9062 28.0007C27.1862 28.0007 27.466 27.8939 27.6797 27.6804C28.1068 27.2532 28.1068 26.5607 27.6797 26.1336L15.5469 14.0008Z" fill="black"/>
</svg>
