<svg width="22" height="16" viewBox="0 0 22 16" fill="none" xmlns="http://www.w3.org/2000/svg">
<path d="M21.3125 1.99995H0.68754C0.308025 1.99995 5.72205e-05 1.55191 5.72205e-05 0.999975C5.72205e-05 0.447952 0.308083 0 0.68754 0H21.3125C21.692 0 22 0.448035 22 0.999975C22 1.55191 21.692 1.99995 21.3125 1.99995Z" fill="black"/>
<path d="M0.68754 7H21.3125C21.692 7 22 7.44803 22 7.99996C22 8.55189 21.692 8.99992 21.3125 8.99992H0.68754C0.308025 8.99992 5.72205e-05 8.55189 5.72205e-05 7.99996C5.72205e-05 7.44803 0.308025 7 0.68754 7Z" fill="black"/>
<path d="M0.687531 14H14.4375C14.817 14 15.125 14.448 15.125 15C15.125 15.552 14.817 15.9999 14.4375 15.9999H0.687531C0.308015 15.9999 4.86374e-05 15.5519 4.86374e-05 15C-8.58307e-06 14.448 0.308015 14 0.687531 14Z" fill="black"/>
</svg>
