<svg width="31" height="31" viewBox="0 0 31 31" fill="none" xmlns="http://www.w3.org/2000/svg">
<path d="M17.5608 27.0039H14.4756C14.315 27.0039 14.161 27.0677 14.0475 27.1812C13.9339 27.2948 13.8701 27.4488 13.8701 27.6094C13.8701 27.77 13.9339 27.924 14.0475 28.0375C14.161 28.1511 14.315 28.2148 14.4756 28.2148H17.5608C17.7214 28.2148 17.8754 28.1511 17.9889 28.0375C18.1025 27.924 18.1663 27.77 18.1663 27.6094C18.1663 27.4488 18.1025 27.2948 17.9889 27.1812C17.8754 27.0677 17.7214 27.0039 17.5608 27.0039Z" fill="#962689"/>
<path d="M28.0936 10.0508C26.8728 10.0508 25.8175 10.3924 25.042 11.0387C24.9705 11.0984 24.8975 11.1644 24.8241 11.2365V1.9375C24.8229 1.52036 24.6566 1.12066 24.3617 0.8257C24.0667 0.53074 23.667 0.364495 23.2499 0.363281H8.71861C8.30147 0.364495 7.90177 0.53074 7.60681 0.8257C7.31184 1.12066 7.1456 1.52036 7.14439 1.9375V3.54805L7.06937 3.47303C6.59245 2.99611 5.9456 2.72817 5.27113 2.72817C4.59665 2.72817 3.94981 2.99611 3.47288 3.47303C2.99596 3.94995 2.72803 4.5968 2.72803 5.27127C2.72803 5.94574 2.99596 6.59259 3.47288 7.06951L6.09299 9.68962C5.66892 9.81329 5.28435 10.0453 4.97715 10.3627C4.66995 10.6801 4.4507 11.0721 4.34097 11.5C4.23125 11.9279 4.23483 12.377 4.35138 12.803C4.46792 13.2291 4.6934 13.6175 5.00563 13.93L6.49605 15.4204C6.02283 15.478 5.57533 15.6675 5.20462 15.9672C4.83392 16.2669 4.55494 16.6648 4.39953 17.1155C4.24413 17.5662 4.21855 18.0514 4.32572 18.516C4.43288 18.9805 4.66849 19.4055 5.00563 19.7425L6.01155 20.7486C5.53833 20.8062 5.09083 20.9957 4.72013 21.2954C4.34942 21.5951 4.07045 21.993 3.91504 22.4437C3.75963 22.8944 3.73405 23.3796 3.84122 23.8441C3.94839 24.3087 4.18399 24.7337 4.52113 25.0707L7.14439 27.6941V29.0625C7.14485 29.4799 7.31085 29.88 7.60598 30.1751C7.9011 30.4703 8.30124 30.6363 8.71861 30.6367H20.3436C20.5042 30.6367 20.6582 30.5729 20.7717 30.4594C20.8853 30.3458 20.9491 30.1918 20.9491 30.0312V24.2188C20.9503 23.7114 21.069 23.2112 21.2959 22.7574C21.5228 22.3036 21.8517 21.9085 22.2569 21.6031L24.5819 19.8594C24.6567 19.8026 24.7175 19.7294 24.7595 19.6454C24.8015 19.5614 24.8236 19.4689 24.8241 19.375V14.5312C24.8241 12.1198 26.296 11.4473 27.4881 11.298V30.0312C27.4881 30.1918 27.5519 30.3458 27.6655 30.4594C27.779 30.5729 27.933 30.6367 28.0936 30.6367C28.2542 30.6367 28.4082 30.5729 28.5217 30.4594C28.6353 30.3458 28.6991 30.1918 28.6991 30.0312V10.6562C28.6991 10.4957 28.6353 10.3417 28.5217 10.2281C28.4082 10.1146 28.2542 10.0508 28.0936 10.0508ZM8.71861 1.57422H23.2499C23.3462 1.57431 23.4385 1.61262 23.5066 1.68073C23.5747 1.74884 23.613 1.84118 23.6131 1.9375V3.75124H8.35532V1.9375C8.35542 1.84118 8.39372 1.74884 8.46183 1.68073C8.52994 1.61262 8.62229 1.57431 8.71861 1.57422ZM3.93873 5.27121C3.92662 4.0983 5.39252 3.49204 6.21311 4.32916L7.14439 5.26049V9.02863L4.32896 6.2132C4.20485 6.08979 4.10646 5.94299 4.03948 5.7813C3.9725 5.6196 3.93825 5.44623 3.93873 5.27121ZM5.86176 11.19C6.35764 10.6733 7.24974 10.6733 7.74556 11.19L10.4856 13.9301C11.6889 15.2223 9.8891 17.0175 8.60181 15.8139L5.86176 13.0738C5.61235 12.8238 5.47228 12.4851 5.47228 12.1319C5.47228 11.7788 5.61235 11.44 5.86176 11.19ZM11.3419 13.0738L10.6838 12.4157C10.809 11.2119 11.3495 10.0893 12.2124 9.24067C13.0753 8.39205 14.2068 7.87039 15.4125 7.76528C16.6182 7.66018 17.8229 7.97818 18.8196 8.66468C19.8164 9.35118 20.543 10.3633 20.8746 11.5273C21.2062 12.6912 21.1222 13.9344 20.637 15.0431C20.1518 16.1519 19.2956 17.0571 18.2156 17.6032C17.1356 18.1494 15.8991 18.3024 14.7185 18.0361C13.5379 17.7697 12.4868 17.1005 11.7459 16.1436C12.0251 15.6585 12.1369 15.0951 12.0638 14.5402C11.9908 13.9854 11.7371 13.4701 11.3419 13.0738ZM5.86176 17.0025C6.35764 16.4858 7.24974 16.4858 7.74556 17.0025L10.4856 19.7426C11.6889 21.0348 9.8891 22.83 8.60181 21.6264L5.86176 18.8863C5.61235 18.6363 5.47228 18.2976 5.47228 17.9444C5.47228 17.5913 5.61235 17.2525 5.86176 17.0025ZM5.37739 22.3307C5.87326 21.8139 6.76536 21.8139 7.26118 22.3307L10.0012 25.0707C11.2045 26.363 9.40472 28.1582 8.11743 26.9545L5.37739 24.2145C5.12798 23.9644 4.98791 23.6257 4.98791 23.2726C4.98791 22.9194 5.12798 22.5807 5.37739 22.3307ZM8.35532 29.0625V28.457C8.58422 28.5227 8.82118 28.5559 9.0593 28.5559C9.41153 28.556 9.75994 28.4829 10.0824 28.3412C10.4049 28.1995 10.6944 27.9923 10.9325 27.7327C11.1706 27.4732 11.3521 27.1669 11.4655 26.8335C11.579 26.5 11.6218 26.1466 11.5914 25.7957H19.7381V29.4258H8.71861C8.62229 29.4257 8.52994 29.3874 8.46183 29.3193C8.39372 29.2512 8.35542 29.1588 8.35532 29.0625ZM21.5303 20.6344C20.9751 21.0529 20.5243 21.5943 20.2134 22.2161C19.9025 22.838 19.7398 23.5235 19.7381 24.2188V24.5845H11.1629C11.073 24.4518 10.9707 24.3279 10.8575 24.2145L9.85144 23.2084C10.3247 23.1508 10.7722 22.9614 11.1429 22.6616C11.5136 22.3619 11.7925 21.964 11.948 21.5133C12.1034 21.0627 12.1289 20.5774 12.0218 20.1129C11.9146 19.6484 11.679 19.2234 11.3419 18.8863L9.85144 17.3959C10.224 17.3516 10.5819 17.2245 10.8989 17.024C11.814 18.1396 13.0784 18.9141 14.488 19.2226C15.8975 19.531 17.3699 19.3553 18.6673 18.7238C19.9647 18.0924 21.0113 17.042 21.6382 15.7424C22.2651 14.4428 22.4356 12.9698 22.1222 11.5614C21.8088 10.1529 21.0297 8.89122 19.9109 7.98006C18.7921 7.06891 17.3988 6.56149 15.9561 6.53976C14.5133 6.51803 13.1054 6.98326 11.9596 7.8603C10.8139 8.73734 9.99721 9.97499 9.64152 11.3734C9.64152 11.3734 8.44118 10.184 8.35532 10.1174V4.96218H23.6131V19.0723L21.5303 20.6344Z" fill="#103742"/>
<path d="M15.3184 13.5625H16.3477C16.5752 13.5705 16.7907 13.6665 16.9488 13.8303C17.1069 13.9941 17.1953 14.2128 17.1953 14.4404C17.1953 14.6681 17.1069 14.8868 16.9488 15.0506C16.7907 15.2143 16.5752 15.3103 16.3477 15.3184H14.8214C14.6099 15.3232 14.4581 15.1178 14.4891 14.9159C14.492 14.7553 14.431 14.6002 14.3195 14.4846C14.2079 14.369 14.0551 14.3025 13.8945 14.2996C13.7339 14.2967 13.5788 14.3578 13.4632 14.4693C13.3476 14.5808 13.2811 14.7336 13.2782 14.8942L13.277 14.957C13.2733 15.1621 13.3106 15.3659 13.3865 15.5565C13.4625 15.7471 13.5756 15.9207 13.7194 16.0671C13.8632 16.2135 14.0347 16.3297 14.2239 16.4091C14.4131 16.4884 14.6162 16.5293 14.8214 16.5293H15.2579V16.8926C15.2579 17.0532 15.3217 17.2072 15.4352 17.3207C15.5488 17.4343 15.7028 17.498 15.8634 17.498C16.0239 17.498 16.1779 17.4343 16.2915 17.3207C16.405 17.2072 16.4688 17.0532 16.4688 16.8926V16.5255C17.0059 16.4864 17.507 16.2415 17.8679 15.8419C18.2288 15.4423 18.4215 14.9188 18.4059 14.3806C18.3903 13.8424 18.1676 13.3309 17.7841 12.9529C17.4007 12.5749 16.8861 12.3595 16.3477 12.3516H15.3184C15.0936 12.3516 14.878 12.2623 14.7191 12.1033C14.5601 11.9443 14.4708 11.7287 14.4708 11.5039C14.4708 11.2791 14.5601 11.0635 14.7191 10.9045C14.878 10.7456 15.0936 10.6562 15.3184 10.6562H16.8207C17.0339 10.6741 17.1449 10.79 17.1537 11.004C17.1503 11.0835 17.1625 11.1628 17.1898 11.2375C17.217 11.3122 17.2587 11.3808 17.3124 11.4394C17.421 11.5577 17.5721 11.6281 17.7326 11.635C17.893 11.6419 18.0496 11.5848 18.1679 11.4762C18.2863 11.3677 18.3566 11.2165 18.3635 11.0561C18.3725 10.8479 18.3392 10.64 18.2657 10.445C18.1922 10.25 18.08 10.0719 17.9359 9.92144C17.7917 9.77094 17.6186 9.65118 17.427 9.56935C17.2353 9.48753 17.0291 9.44533 16.8207 9.44531H16.4688V9.08203C16.4688 8.92145 16.405 8.76745 16.2915 8.6539C16.1779 8.54035 16.0239 8.47656 15.8634 8.47656C15.7028 8.47656 15.5488 8.54035 15.4352 8.6539C15.3217 8.76745 15.2579 8.92145 15.2579 9.08203V9.44683C14.7176 9.46288 14.2053 9.69084 13.8316 10.0815C13.458 10.4721 13.253 10.994 13.261 11.5345C13.2689 12.075 13.4892 12.5906 13.8741 12.9701C14.2591 13.3496 14.7779 13.5623 15.3184 13.5625Z" fill="#962689"/>
</svg>
