<svg width="32" height="32" viewBox="0 0 32 32" fill="none" xmlns="http://www.w3.org/2000/svg">
<g clip-path="url(#clip0)">
<path d="M31.8049 30.862L22.0683 21.1253C24.0907 18.8799 25.3336 15.9193 25.3336 12.6666C25.3336 5.68231 19.6513 0 12.6669 0C5.68256 0 0.000244141 5.68231 0.000244141 12.6667C0.000244141 19.6511 5.68256 25.3334 12.6669 25.3334C15.9196 25.3334 18.8801 24.0904 21.1256 22.0681L30.8622 31.8047C30.9924 31.9349 31.1631 32 31.3336 32C31.5042 32 31.6747 31.9349 31.805 31.8047C32.0654 31.5443 32.0654 31.1224 31.8049 30.862ZM12.6669 24C6.41824 24 1.33362 18.916 1.33362 12.6667C1.33362 6.41738 6.41824 1.33331 12.6669 1.33331C18.9156 1.33331 24.0002 6.41731 24.0002 12.6667C24.0002 18.9161 18.9156 24 12.6669 24Z" fill="black"/>
</g>
<defs>
<clipPath id="clip0">
<rect width="32" height="32" fill="white" transform="translate(0.000244141)"/>
</clipPath>
</defs>
</svg>
