<svg width="22" height="22" viewBox="0 0 22 22" fill="none" xmlns="http://www.w3.org/2000/svg">
<g clip-path="url(#clip0)">
<path d="M21.5417 9.16713H17.6578L12.7528 2.03252C12.6096 1.82395 12.3244 1.77157 12.1154 1.91435C11.9069 2.05804 11.854 2.34314 11.9973 2.55171L16.5453 9.16709H5.45467L10.0028 2.55175C10.146 2.34318 10.0932 2.05804 9.88462 1.9144C9.67695 1.77161 9.39138 1.82399 9.24726 2.03256L4.34221 9.16713H0.458348C0.205004 9.16713 0 9.37214 0 9.62548C0 9.87883 0.205004 10.0838 0.458348 10.0838H1.03984L3.84171 18.8898C4.08521 19.6538 4.78702 20.1672 5.58864 20.1672H16.4114C17.213 20.1672 17.9149 19.6538 18.1583 18.8893L20.9602 10.0838H21.5417C21.795 10.0838 22 9.87883 22 9.62548C22 9.37214 21.795 9.16713 21.5417 9.16713ZM17.2846 18.6113C17.1629 18.9936 16.812 19.2505 16.4114 19.2505H5.58864C5.18805 19.2505 4.83712 18.9936 4.71539 18.6118L2.00187 10.0838H19.9982L17.2846 18.6113Z" fill="#103742"/>
</g>
<defs>
<clipPath id="clip0">
<rect width="22" height="22" fill="white"/>
</clipPath>
</defs>
</svg>
