<svg width="30" height="30" viewBox="0 0 30 30" fill="none" xmlns="http://www.w3.org/2000/svg">
<path d="M20.2993 29.7433H9.35405C4.31732 29.7433 0.233887 25.6527 0.233887 20.6072V9.64389C0.233887 4.59837 4.31732 0.507812 9.35405 0.507812H20.2982C25.335 0.507812 29.4184 4.59837 29.4184 9.64389V20.6072C29.4195 25.6527 25.3361 29.7433 20.2993 29.7433Z" fill="white"/>
<path fill-rule="evenodd" clip-rule="evenodd" d="M20.2993 29.7433H9.35405C4.31732 29.7433 0.233887 25.6527 0.233887 20.6072V9.64389C0.233887 4.59837 4.31732 0.507812 9.35405 0.507812H20.2982C25.335 0.507812 29.4184 4.59837 29.4184 9.64389V20.6072C29.4195 25.6527 25.3361 29.7433 20.2993 29.7433Z" fill="url(#paint0_radial)"/>
<path d="M20.2993 29.7433H9.35405C4.31732 29.7433 0.233887 25.6527 0.233887 20.6072V9.64389C0.233887 4.59837 4.31732 0.507812 9.35405 0.507812H20.2982C25.335 0.507812 29.4184 4.59837 29.4184 9.64389V20.6072C29.4195 25.6527 25.3361 29.7433 20.2993 29.7433Z" fill="#37AEE2"/>
<path opacity="0.6" d="M20.2993 29.7433H9.35405C4.31732 29.7433 0.233887 25.6527 0.233887 20.6072V9.64389C0.233887 4.59837 4.31732 0.507812 9.35405 0.507812H20.2982C25.335 0.507812 29.4184 4.59837 29.4184 9.64389V20.6072C29.4195 25.6527 25.3361 29.7433 20.2993 29.7433Z" fill="#37AEE2"/>
<path d="M21.7724 10.0223C21.7306 10.6131 21.3939 12.6799 21.0561 14.9153L20.0031 21.5377C20.0031 21.5377 19.9184 22.5077 19.2031 22.6764C18.4879 22.845 17.3083 22.0856 17.0981 21.9169C16.9298 21.7902 13.9401 19.892 12.8453 18.9639C12.5504 18.7104 12.2137 18.2045 12.8871 17.6137C14.4034 16.2215 16.2135 14.492 17.3083 13.3953C17.8134 12.8893 18.3184 11.7077 16.2135 13.1418L10.276 17.1485C10.276 17.1485 9.60256 17.5707 8.33936 17.1904C7.07616 16.8112 5.60278 16.3042 5.60278 16.3042C5.60278 16.3042 4.59264 15.6715 6.31909 14.9969L16.1298 10.9472C17.0981 10.525 20.3827 9.17583 20.3827 9.17583C20.3827 9.17583 21.8979 8.58825 21.7724 10.0223Z" fill="white"/>
<defs>
<radialGradient id="paint0_radial" cx="0" cy="0" r="1" gradientUnits="userSpaceOnUse" gradientTransform="translate(26.704 3.22864) scale(33.6207 33.6794)">
<stop stop-color="#D7D7D7"/>
<stop offset="1" stop-color="#393939"/>
</radialGradient>
</defs>
</svg>
