<svg width="18" height="18" viewBox="0 0 18 18" fill="none" xmlns="http://www.w3.org/2000/svg">
<g clip-path="url(#clip0)">
<path d="M3.66778 11.9652C5.44316 14.0874 7.58034 15.7584 10.0196 16.9407C10.9483 17.3809 12.1904 17.903 13.5741 17.9925C13.6599 17.9963 13.742 18 13.8277 18C14.7565 18 15.5024 17.6792 16.1104 17.0191C16.1141 17.0153 16.1216 17.0079 16.1253 17.0004C16.3416 16.7393 16.5878 16.5044 16.8452 16.2545C17.0205 16.0866 17.1995 15.9113 17.3711 15.7323C18.1655 14.9043 18.1655 13.8525 17.3636 13.0506L15.122 10.809C14.7415 10.4136 14.2865 10.2047 13.8091 10.2047C13.3317 10.2047 12.8729 10.4136 12.4813 10.8052L11.146 12.1405C11.0229 12.0696 10.8961 12.0062 10.7768 11.9465C10.6276 11.8719 10.4896 11.8011 10.3665 11.7228C9.15058 10.9507 8.04656 9.94364 6.99103 8.6494C6.45767 7.97431 6.09961 7.40738 5.84971 6.82926C6.20031 6.51223 6.52853 6.18027 6.84557 5.85578C6.95746 5.74016 7.07308 5.62453 7.18871 5.50891C7.59153 5.10609 7.80785 4.63987 7.80785 4.16618C7.80785 3.6925 7.59526 3.22627 7.18871 2.82346L6.07723 1.71198C5.94668 1.58143 5.8236 1.45462 5.69679 1.32408C5.45062 1.07045 5.19327 0.809366 4.93964 0.574389C4.55547 0.197679 4.10417 0 3.62675 0C3.15307 0 2.69803 0.197679 2.29894 0.578119L0.904 1.97306C0.396747 2.48031 0.109553 3.09573 0.0498764 3.80812C-0.0209898 4.69954 0.143121 5.64691 0.568318 6.79196C1.22103 8.56361 2.2057 10.2085 3.66778 11.9652ZM0.959947 3.88645C1.0047 3.39039 1.19492 2.97638 1.55298 2.61832L2.94047 1.23083C3.1568 1.02196 3.3955 0.9138 3.62675 0.9138C3.85427 0.9138 4.08552 1.02196 4.29811 1.23829C4.54801 1.46954 4.78299 1.71198 5.03661 1.96933C5.16343 2.09988 5.29397 2.23042 5.42451 2.36469L6.53599 3.47617C6.76724 3.70742 6.88659 3.9424 6.88659 4.17364C6.88659 4.40489 6.76724 4.63987 6.53599 4.87111C6.42037 4.98674 6.30475 5.10609 6.18912 5.22172C5.84225 5.57232 5.51776 5.90427 5.1597 6.2213C5.15224 6.22876 5.14851 6.23249 5.14105 6.23995C4.83148 6.54952 4.87996 6.84418 4.95456 7.06797C4.95829 7.07915 4.96202 7.08661 4.96575 7.0978C5.25294 7.78782 5.65203 8.44426 6.27491 9.22752C7.39385 10.6075 8.57246 11.678 9.87043 12.5023C10.0308 12.6067 10.2024 12.6888 10.3628 12.7708C10.512 12.8454 10.65 12.9163 10.773 12.9946C10.788 13.0021 10.7992 13.0095 10.8141 13.017C10.9372 13.0804 11.0565 13.1102 11.1759 13.1102C11.4742 13.1102 11.6682 12.92 11.7316 12.8566L13.1265 11.4617C13.3429 11.2453 13.5778 11.1297 13.8091 11.1297C14.0926 11.1297 14.3238 11.305 14.4693 11.4617L16.7183 13.707C17.1659 14.1546 17.1622 14.6395 16.7071 15.1131C16.5505 15.281 16.3864 15.4414 16.2111 15.6092C15.95 15.8628 15.6777 16.1239 15.4316 16.4186C15.0026 16.8811 14.4916 17.0974 13.8315 17.0974C13.7681 17.0974 13.7009 17.0937 13.6375 17.0899C12.4142 17.0116 11.2766 16.5342 10.4224 16.1276C8.10251 15.005 6.06604 13.4123 4.37644 11.3908C2.98523 9.71612 2.04905 8.15707 1.4299 6.48612C1.04573 5.46042 0.90027 4.63614 0.959947 3.88645Z" fill="#103742"/>
</g>
<defs>
<clipPath id="clip0">
<rect width="18" height="18" fill="white"/>
</clipPath>
</defs>
</svg>
