<svg width="30" height="30" viewBox="0 0 30 30" fill="none" xmlns="http://www.w3.org/2000/svg">
<path d="M20.2872 29.3901H9.54978C4.60868 29.3901 0.602783 25.3842 0.602783 20.4431V9.70676C0.602783 4.76566 4.60868 0.759766 9.54978 0.759766H20.2862C25.2273 0.759766 29.2332 4.76566 29.2332 9.70676V20.4431C29.2342 25.3842 25.2283 29.3901 20.2872 29.3901Z" fill="white"/>
<path fill-rule="evenodd" clip-rule="evenodd" d="M20.2872 29.3901H9.54978C4.60868 29.3901 0.602783 25.3842 0.602783 20.4431V9.70676C0.602783 4.76566 4.60868 0.759766 9.54978 0.759766H20.2862C25.2273 0.759766 29.2332 4.76566 29.2332 9.70676V20.4431C29.2342 25.3842 25.2283 29.3901 20.2872 29.3901Z" fill="url(#paint0_radial)"/>
<path d="M20.2872 29.3901H9.54978C4.60868 29.3901 0.602783 25.3842 0.602783 20.4431V9.70676C0.602783 4.76566 4.60868 0.759766 9.54978 0.759766H20.2862C25.2273 0.759766 29.2332 4.76566 29.2332 9.70676V20.4431C29.2342 25.3842 25.2283 29.3901 20.2872 29.3901Z" fill="#4C75A3"/>
<path opacity="0.6" d="M20.2872 29.3901H9.54978C4.60868 29.3901 0.602783 25.3842 0.602783 20.4431V9.70676C0.602783 4.76566 4.60868 0.759766 9.54978 0.759766H20.2862C25.2273 0.759766 29.2332 4.76566 29.2332 9.70676V20.4431C29.2342 25.3842 25.2283 29.3901 20.2872 29.3901Z" fill="#4C75A3"/>
<path d="M22.6826 20.0859L20.3924 20.1175C20.3924 20.1175 19.9001 20.2153 19.2532 19.7703C18.3968 19.1823 17.5889 17.6538 16.9599 17.8537C16.3213 18.0567 16.3413 19.4316 16.3413 19.4316C16.3413 19.4316 16.3455 19.7251 16.2003 19.8819C16.0425 20.0523 15.7322 20.0859 15.7322 20.0859H14.7076C14.7076 20.0859 12.4469 20.2216 10.4555 18.1482C8.28428 15.8865 6.36549 11.3999 6.36549 11.3999C6.36549 11.3999 6.25504 11.1053 6.37496 10.9633C6.50961 10.8034 6.8778 10.7929 6.8778 10.7929L9.32783 10.7771C9.32783 10.7771 9.55822 10.815 9.72338 10.937C9.85908 11.0369 9.93587 11.2242 9.93587 11.2242C9.93587 11.2242 10.3314 12.2256 10.8563 13.1314C11.8799 14.8997 12.3564 15.2869 12.7036 15.0975C13.2096 14.8208 13.0581 12.598 13.0581 12.598C13.0581 12.598 13.0676 11.7912 12.8035 11.4314C12.5995 11.1526 12.2134 11.0716 12.043 11.0485C11.9052 11.0296 12.1313 10.7098 12.4248 10.5667C12.8656 10.351 13.6441 10.3384 14.5635 10.3479C15.2799 10.3552 15.4871 10.4005 15.7669 10.4678C16.6117 10.6719 16.3245 11.4598 16.3245 13.3481C16.3245 13.953 16.2151 14.804 16.6516 15.0859C16.8389 15.2069 17.2986 15.1038 18.4463 13.1545C18.9902 12.2309 19.3983 11.1442 19.3983 11.1442C19.3983 11.1442 19.4877 10.9507 19.6255 10.8676C19.7676 10.7823 19.958 10.8086 19.958 10.8086L22.5363 10.7929C22.5363 10.7929 23.3106 10.7003 23.4368 11.0506C23.5683 11.4177 23.1475 12.274 22.0945 13.6784C20.3651 15.9833 20.1726 15.7676 21.6085 17.1005C22.9803 18.3733 23.2643 18.9929 23.3106 19.0697C23.8797 20.0112 22.6826 20.0859 22.6826 20.0859Z" fill="white"/>
<defs>
<radialGradient id="paint0_radial" cx="0" cy="0" r="1" gradientUnits="userSpaceOnUse" gradientTransform="translate(26.5702 3.42431) scale(32.9823)">
<stop stop-color="#D7D7D7"/>
<stop offset="1" stop-color="#393939"/>
</radialGradient>
</defs>
</svg>
