<svg width="45" height="17" viewBox="0 0 45 17" fill="none" xmlns="http://www.w3.org/2000/svg">
<g clip-path="url(#clip0)">
<path d="M16.5 14.9646L18.7857 2.10742H22.3571L20.1429 14.9646H16.5Z" fill="#3C58BF"/>
<path d="M16.5 14.9646L19.4286 2.10742H22.3571L20.1429 14.9646H16.5Z" fill="#293688"/>
<path d="M33.0714 2.24916C32.3571 1.96345 31.2143 1.67773 29.7857 1.67773C26.2143 1.67773 23.6428 3.46345 23.6428 6.03488C23.6428 7.96345 25.4285 8.96345 26.8571 9.6063C28.2857 10.2492 28.7143 10.6777 28.7143 11.2492C28.7143 12.1063 27.5714 12.5349 26.5714 12.5349C25.1428 12.5349 24.3571 12.3206 23.1428 11.8206L22.6428 11.6063L22.1428 14.5349C23 14.892 24.5714 15.2492 26.2143 15.2492C30 15.2492 32.5 13.4634 32.5 10.7492C32.5 9.24916 31.5714 8.1063 29.4285 7.17773C28.1428 6.53488 27.3571 6.17773 27.3571 5.53488C27.3571 4.96345 28 4.39202 29.4285 4.39202C30.6428 4.39202 31.5 4.60631 32.1428 4.89202L32.5 5.03488L33.0714 2.24916Z" fill="#3C58BF"/>
<path d="M33.0714 2.24916C32.3571 1.96345 31.2143 1.67773 29.7857 1.67773C26.2143 1.67773 24.2857 3.46345 24.2857 6.03488C24.2857 7.96345 25.4285 8.96345 26.8571 9.6063C28.2857 10.2492 28.7143 10.6777 28.7143 11.2492C28.7143 12.1063 27.5714 12.5349 26.5714 12.5349C25.1428 12.5349 24.3571 12.3206 23.1428 11.8206L22.6428 11.6063L22.1428 14.5349C23 14.892 24.5714 15.2492 26.2143 15.2492C30 15.2492 32.5 13.4634 32.5 10.7492C32.5 9.24916 31.5714 8.1063 29.4285 7.17773C28.1428 6.53488 27.3571 6.17773 27.3571 5.53488C27.3571 4.96345 28 4.39202 29.4285 4.39202C30.6428 4.39202 31.5 4.60631 32.1428 4.89202L32.5 5.03488L33.0714 2.24916Z" fill="#293688"/>
<path d="M39.2144 2.10742C38.3573 2.10742 37.7144 2.17885 37.3573 3.03599L32.0001 14.9646H35.8573L36.5716 12.8217H41.143L41.5715 14.9646H45.0001L42.0001 2.10742H39.2144ZM37.5715 10.6789C37.7858 10.036 39.0001 6.89314 39.0001 6.89314C39.0001 6.89314 39.2858 6.10742 39.5001 5.60742L39.7144 6.82171C39.7144 6.82171 40.4287 10.036 40.5715 10.7503H37.5715V10.6789Z" fill="#3C58BF"/>
<path d="M40.0715 2.10742C39.2144 2.10742 38.5715 2.17885 38.2144 3.03599L32.0001 14.9646H35.8573L36.5716 12.8217H41.143L41.5715 14.9646H45.0001L42.0001 2.10742H40.0715ZM37.5715 10.6789C37.8573 9.96456 39.0001 6.89314 39.0001 6.89314C39.0001 6.89314 39.2858 6.10742 39.5001 5.60742L39.7144 6.82171C39.7144 6.82171 40.4287 10.036 40.5715 10.7503H37.5715V10.6789Z" fill="#293688"/>
<path d="M9.92856 11.1063L9.57141 9.24916C8.92856 7.1063 6.85713 4.74916 4.57141 3.6063L7.7857 15.0349H11.6428L17.4286 2.17773H13.5714L9.92856 11.1063Z" fill="#3C58BF"/>
<path d="M9.92856 11.1063L9.57141 9.24916C8.92856 7.1063 6.85713 4.74916 4.57141 3.6063L7.7857 15.0349H11.6428L17.4286 2.17773H14.2857L9.92856 11.1063Z" fill="#293688"/>
<path d="M0 2.10742L0.642857 2.25028C5.21429 3.32171 8.35714 6.03599 9.57143 9.25027L8.28572 3.17885C8.07143 2.32171 7.42857 2.10742 6.64286 2.10742H0Z" fill="#FFBC00"/>
<path d="M0 2.10742C4.57143 3.17885 8.35714 5.96456 9.57143 9.17885L8.35714 4.10742C8.14286 3.25028 7.42857 2.75028 6.64286 2.75028L0 2.10742Z" fill="#F7981D"/>
<path d="M0 2.10742C4.57143 3.17885 8.35714 5.96456 9.57143 9.17885L8.71429 6.39313C8.5 5.53599 8.21429 4.67885 7.21429 4.32171L0 2.10742Z" fill="#ED7C00"/>
<path d="M13.5001 10.678L11.0715 8.24944L9.92866 10.9637L9.64294 9.17801C9.00009 7.03516 6.92866 4.67801 4.64294 3.53516L7.85723 14.9637H11.7144L13.5001 10.678Z" fill="#051244"/>
<path d="M20.1429 14.9632L17.0715 11.8203L16.5001 14.9632H20.1429Z" fill="#051244"/>
<path d="M28.3573 10.5352C28.643 10.8209 28.7858 11.0352 28.7144 11.3209C28.7144 12.178 27.5715 12.6066 26.5715 12.6066C25.143 12.6066 24.3573 12.3923 23.143 11.8923L22.643 11.678L22.143 14.6066C23.0001 14.9637 24.5715 15.3209 26.2144 15.3209C28.5001 15.3209 30.3573 14.678 31.4287 13.5352L28.3573 10.5352Z" fill="#051244"/>
<path d="M32.5001 14.9646H35.8572L36.5715 12.8217H41.1429L41.5715 14.9646H45.0001L43.7858 9.75028L39.5001 5.60742L39.7144 6.75028C39.7144 6.75028 40.4287 9.96456 40.5715 10.6788H37.5715C37.8572 9.96456 39.0001 6.89313 39.0001 6.89313C39.0001 6.89313 39.2858 6.10742 39.5001 5.60742" fill="#051244"/>
</g>
<defs>
<clipPath id="clip0">
<rect width="45" height="17" fill="white"/>
</clipPath>
</defs>
</svg>
