<svg width="45" height="41" xmlns="http://www.w3.org/2000/svg" fill="none">
 <defs>
  <clipPath id="clip0">
   <rect id="svg_1" x="0" y="-4" fill="white" height="45" width="45"/>
  </clipPath>
 </defs>
 <g>
  <title>Layer 1</title>
  <g id="svg_2" clip-path="url(#clip0)">
   <path id="svg_3" fill="#3C58BF" d="m16.5,26.9653l2.2857,-12.8572l3.5714,0l-2.2142,12.8572l-3.6429,0z"/>
   <path id="svg_4" fill="#293688" d="m16.5,26.9653l2.9286,-12.8572l2.9285,0l-2.2142,12.8572l-3.6429,0z"/>
   <path id="svg_5" fill="#3C58BF" d="m33.0714,14.2499c-0.7143,-0.2858 -1.8571,-0.5715 -3.2857,-0.5715c-3.5714,0 -6.1429,1.7857 -6.1429,4.3572c0,1.9285 1.7857,2.9285 3.2143,3.5714c1.4286,0.6429 1.8572,1.0714 1.8572,1.6429c0,0.8571 -1.1429,1.2857 -2.1429,1.2857c-1.4286,0 -2.2143,-0.2143 -3.4286,-0.7143l-0.5,-0.2143l-0.5,2.9286c0.8572,0.3571 2.4286,0.7143 4.0715,0.7143c3.7857,0 6.2857,-1.7858 6.2857,-4.5c0,-1.5 -0.9286,-2.6429 -3.0715,-3.5715c-1.2857,-0.6428 -2.0714,-1 -2.0714,-1.6428c0,-0.5715 0.6429,-1.1429 2.0714,-1.1429c1.2143,0 2.0715,0.2143 2.7143,0.5l0.3572,0.1429l0.5714,-2.7857z"/>
   <path id="svg_6" fill="#293688" d="m33.0714,14.2499c-0.7143,-0.2858 -1.8571,-0.5715 -3.2857,-0.5715c-3.5714,0 -5.5,1.7857 -5.5,4.3572c0,1.9285 1.1428,2.9285 2.5714,3.5714c1.4286,0.6429 1.8572,1.0714 1.8572,1.6429c0,0.8571 -1.1429,1.2857 -2.1429,1.2857c-1.4286,0 -2.2143,-0.2143 -3.4286,-0.7143l-0.5,-0.2143l-0.5,2.9286c0.8572,0.3571 2.4286,0.7143 4.0715,0.7143c3.7857,0 6.2857,-1.7858 6.2857,-4.5c0,-1.5 -0.9286,-2.6429 -3.0715,-3.5715c-1.2857,-0.6428 -2.0714,-1 -2.0714,-1.6428c0,-0.5715 0.6429,-1.1429 2.0714,-1.1429c1.2143,0 2.0715,0.2143 2.7143,0.5l0.3572,0.1429l0.5714,-2.7857z"/>
   <path id="svg_7" fill="#3C58BF" d="m39.2144,14.1081c-0.8571,0 -1.5,0.0715 -1.8571,0.9286l-5.3572,11.9286l3.8572,0l0.7143,-2.1429l4.5714,0l0.4285,2.1429l3.4286,0l-3,-12.8572l-2.7857,0zm-1.6429,8.5715c0.2143,-0.6429 1.4286,-3.7858 1.4286,-3.7858c0,0 0.2857,-0.7857 0.5,-1.2857l0.2143,1.2143c0,0 0.7143,3.2143 0.8571,3.9286l-3,0l0,-0.0714z"/>
   <path id="svg_8" fill="#293688" d="m40.0715,14.1081c-0.8571,0 -1.5,0.0715 -1.8571,0.9286l-6.2143,11.9286l3.8572,0l0.7143,-2.1429l4.5714,0l0.4285,2.1429l3.4286,0l-3,-12.8572l-1.9286,0zm-2.5,8.5715c0.2858,-0.7143 1.4286,-3.7858 1.4286,-3.7858c0,0 0.2857,-0.7857 0.5,-1.2857l0.2143,1.2143c0,0 0.7143,3.2143 0.8571,3.9286l-3,0l0,-0.0714z"/>
   <path id="svg_9" fill="#3C58BF" d="m9.92856,23.107l-0.35715,-1.8571c-0.64285,-2.1429 -2.71428,-4.5 -5,-5.6429l3.21429,11.4286l3.8571,0l5.7858,-12.8572l-3.8572,0l-3.64284,8.9286z"/>
   <path id="svg_10" fill="#293688" d="m9.92856,23.107l-0.35715,-1.8571c-0.64285,-2.1429 -2.71428,-4.5 -5,-5.6429l3.21429,11.4286l3.8571,0l5.7858,-12.8572l-3.1429,0l-4.35714,8.9286z"/>
   <path id="svg_11" fill="#FFBC00" d="m0,14.1081l0.64286,0.1429c4.57143,1.0714 7.71428,3.7857 8.92857,7l-1.28571,-6.0715c-0.21429,-0.8571 -0.85715,-1.0714 -1.64286,-1.0714l-6.64286,0z"/>
   <path id="svg_12" fill="#F7981D" d="m0,14.1081c4.57143,1.0714 8.35714,3.8572 9.57143,7.0714l-1.21429,-5.0714c-0.21428,-0.8571 -0.92857,-1.3571 -1.71428,-1.3571l-6.64286,-0.6429z"/>
   <path id="svg_13" fill="#ED7C00" d="m0,14.1081c4.57143,1.0714 8.35714,3.8572 9.57143,7.0714l-0.85714,-2.7857c-0.21429,-0.8571 -0.5,-1.7143 -1.5,-2.0714l-7.21429,-2.2143z"/>
   <path id="svg_14" fill="#051244" d="m13.5001,22.6787l-2.4286,-2.4286l-1.14284,2.7143l-0.28572,-1.7857c-0.64285,-2.1428 -2.71428,-4.5 -5,-5.6428l3.21429,11.4285l3.85717,0l1.7857,-4.2857z"/>
   <path id="svg_15" fill="#051244" d="m20.1429,26.9639l-3.0715,-3.1429l-0.5714,3.1429l3.6429,0z"/>
   <path id="svg_16" fill="#051244" d="m28.3572,22.5359c0.2857,0.2857 0.4286,0.5 0.3572,0.7857c0,0.8571 -1.1429,1.2857 -2.1429,1.2857c-1.4286,0 -2.2143,-0.2143 -3.4286,-0.7143l-0.5,-0.2143l-0.5,2.9286c0.8572,0.3571 2.4286,0.7143 4.0715,0.7143c2.2857,0 4.1428,-0.6429 5.2143,-1.7857l-3.0715,-3z"/>
   <path id="svg_17" fill="#051244" d="m32.5001,26.9653l3.3572,0l0.7143,-2.1429l4.5714,0l0.4286,2.1429l3.4285,0l-1.2143,-5.2143l-4.2857,-4.1429l0.2143,1.1429c0,0 0.7143,3.2143 0.8572,3.9285l-3,0c0.2857,-0.7142 1.4285,-3.7857 1.4285,-3.7857c0,0 0.2857,-0.7857 0.5,-1.2857"/>
  </g>
 </g>
</svg>