<svg width="30" height="30" viewBox="0 0 30 30" fill="none" xmlns="http://www.w3.org/2000/svg">
<path d="M20.52 29.5205H9.58308C4.5497 29.5205 0.468994 25.4398 0.468994 20.4065V9.46955C0.468994 4.43618 4.5497 0.355469 9.58308 0.355469H20.52C25.5534 0.355469 29.6341 4.43618 29.6341 9.46955V20.4065C29.6341 25.4398 25.5534 29.5205 20.52 29.5205Z" fill="white"/>
<path fill-rule="evenodd" clip-rule="evenodd" d="M20.52 29.5205H9.58308C4.5497 29.5205 0.468994 25.4398 0.468994 20.4065V9.46955C0.468994 4.43618 4.5497 0.355469 9.58308 0.355469H20.52C25.5534 0.355469 29.6341 4.43618 29.6341 9.46955V20.4065C29.6341 25.4398 25.5534 29.5205 20.52 29.5205Z" fill="url(#paint0_radial)"/>
<path d="M20.52 29.5205H9.58308C4.5497 29.5205 0.468994 25.4398 0.468994 20.4065V9.46955C0.468994 4.43618 4.5497 0.355469 9.58308 0.355469H20.52C25.5534 0.355469 29.6341 4.43618 29.6341 9.46955V20.4065C29.6341 25.4398 25.5534 29.5205 20.52 29.5205Z" fill="#00FF68"/>
<path opacity="0.6" d="M20.52 29.5205H9.58308C4.5497 29.5205 0.468994 25.4398 0.468994 20.4065V9.46955C0.468994 4.43618 4.5497 0.355469 9.58308 0.355469H20.52C25.5534 0.355469 29.6341 4.43618 29.6341 9.46955V20.4065C29.6341 25.4398 25.5534 29.5205 20.52 29.5205Z" fill="#00FF68"/>
<path fill-rule="evenodd" clip-rule="evenodd" d="M15.0483 6.37109C10.315 6.37109 6.4775 10.2085 6.4775 14.9419C6.4775 16.5611 6.92651 18.0753 7.70772 19.3666L6.16138 23.9648L10.9065 22.4453C12.1346 23.1247 13.5469 23.5116 15.0493 23.5116C19.7827 23.5116 23.6201 19.6741 23.6201 14.9419C23.619 10.2085 19.7816 6.37109 15.0483 6.37109ZM15.0483 22.1474C13.5845 22.1474 12.2214 21.708 11.0844 20.9558L8.31532 21.8431L9.21548 19.1672C8.35283 17.9788 7.84381 16.5193 7.84381 14.9429C7.84381 10.9705 11.0758 7.7374 15.0493 7.7374C19.0218 7.7374 22.2549 10.9694 22.2549 14.9429C22.2538 18.9143 19.0208 22.1474 15.0483 22.1474ZM19.3755 16.9158C19.428 17.0036 19.428 17.4237 19.2533 17.9145C19.0775 18.4053 18.2203 18.8779 17.8355 18.9133C17.4508 18.9486 17.4508 19.2294 15.314 18.3882C13.1783 17.547 11.8302 15.3566 11.7252 15.2173C11.6202 15.078 10.8679 14.0781 10.8679 13.0451C10.8679 12.011 11.4101 11.5031 11.603 11.293C11.7959 11.083 12.0231 11.0305 12.1635 11.0305C12.3039 11.0305 12.4432 11.0476 12.5664 11.0476C12.6886 11.0476 12.8643 10.978 13.039 11.398C13.2137 11.8181 13.6337 12.8522 13.6873 12.9572C13.7398 13.0623 13.7752 13.1855 13.7045 13.3248C13.6348 13.4652 13.5995 13.5531 13.4944 13.6752C13.3894 13.7984 13.2737 13.9495 13.1794 14.0438C13.0744 14.1489 12.9651 14.2625 13.0872 14.4725C13.2094 14.6825 13.6316 15.3705 14.2564 15.9267C15.059 16.6425 15.7363 16.8643 15.9452 16.9694C16.1553 17.0744 16.2774 17.0572 16.4007 16.9168C16.5228 16.7765 16.9257 16.3039 17.0661 16.0938C17.2065 15.8838 17.3458 15.9192 17.5387 15.9888C17.7316 16.0585 18.7646 16.5675 18.9747 16.6725C19.1826 16.7754 19.3229 16.8279 19.3755 16.9158Z" fill="white"/>
<defs>
<radialGradient id="paint0_radial" cx="0" cy="0" r="1" gradientUnits="userSpaceOnUse" gradientTransform="translate(26.9206 3.06974) scale(33.5983)">
<stop stop-color="#D7D7D7"/>
<stop offset="1" stop-color="#393939"/>
</radialGradient>
</defs>
</svg>
